Results
version=1
nRows=9
nColumns=24
inDegrees=yes
endheader
time	pelvis_tilt	pelvis_list	pelvis_rotation	pelvis_tx	pelvis_ty	pelvis_tz	hip_flexion_r	hip_adduction_r	hip_rotation_r	knee_angle_r	ankle_angle_r	subtalar_angle_r	mtp_angle_r	hip_flexion_l	hip_adduction_l	hip_rotation_l	knee_angle_l	ankle_angle_l	subtalar_angle_l	mtp_angle_l	lumbar_extension	lumbar_bending	lumbar_rotation
      0.64400000	     -3.73526203	      8.66856213	      3.82200751	      0.05055272	      0.96332838	      0.28672200	     32.48525954	     -9.97990341	     -1.09380006	      0.08774249	      2.81322499	     -4.66822381	      0.98814725	    -21.39665652	     11.31949347	      9.20539307	      1.34976791	      9.07713094	     -6.35344010	      0.92956639	     -9.12621175	     -0.68786973	    -13.41628073
      0.64816667	     -3.78199186	      8.55508811	      3.84103256	      0.05660774	      0.96262922	      0.28708246	     32.52926339	     -9.82185803	     -0.65308469	     -0.38284531	      2.59487648	     -5.25007879	      5.12888316	    -21.48705999	     11.17097098	      8.95966750	      0.93633688	      9.06737232	     -6.05084221	      3.90838772	     -9.03037165	     -0.51306592	    -13.40977196
      0.65233333	     -3.82877029	      8.42438213	      3.84502131	      0.06270579	      0.96195740	      0.28746278	     32.55932185	     -9.63776889	     -0.17941129	     -0.85840538	      2.29668999	     -5.83937994	      5.15056295	    -21.62335332	     11.00683141	      8.95161352	      0.61978093	      8.89406368	     -6.20799170	      3.93267693	     -8.93588430	     -0.31161061	    -13.39374601
      0.65650000	     -3.90063910	      8.27996465	      3.85084564	      0.06885406	      0.96128010	      0.28786132	     32.62454694	     -9.43869878	      0.27473147	     -1.38937339	      2.02930211	     -6.38139463	      5.16780961	    -21.70263464	     10.83431563	      8.87516812	      0.24097183	      8.76050385	     -6.25230042	      3.98059303	     -8.82473879	     -0.10419856	    -13.33668741
      0.66066667	     -3.96462110	      8.14467314	      3.86375603	      0.07502992	      0.96064471	      0.28826870	     32.67413549	     -9.24834206	      0.71480111	     -1.92178861	      1.57603202	     -7.08457332	      5.18954536	    -21.77774883	     10.66888702	      8.78871581	     -0.16582377	      8.63342756	     -6.26977086	      4.08509217	     -8.69714231	      0.07878812	    -13.25175952
      0.66483333	     -4.04029999	      7.98354802	      3.86278899	      0.08127482	      0.96001705	      0.28871005	     32.73994648	     -9.02391559	      1.13559481	     -2.48552384	      1.11440777	     -7.74541689	      5.21245823	    -21.83152399	     10.48421857	      8.67568718	     -0.58361862	      8.46784760	     -6.30465124	      4.22475072	     -8.56028633	      0.29770523	    -13.17465340
      0.66900000	     -4.11805370	      7.81644499	      3.86512144	      0.08755169	      0.95941657	      0.28914161	     32.81150248	     -8.79528684	      1.52241967	     -3.07030251	      0.58618839	     -8.41278524	      5.23595922	    -21.87089731	     10.29602031	      8.56716453	     -1.02499565	      8.28234080	     -6.35855680	      4.40954241	     -8.41639012	      0.52870793	    -13.09524743
      0.67316667	     -4.21872267	      7.61700786	      3.84507588	      0.09391234	      0.95880224	      0.28959998	     32.91898619	     -8.52475621	      1.86488776	     -3.69143571	      0.07763290	     -8.93768992	      5.24842641	    -21.87943531	     10.08725825	      8.42200297	     -1.47047238	      8.02777481	     -6.45087132	      4.54814639	     -8.24105766	      0.81569781	    -13.02517960
      0.67733333	     -4.29615917	      7.44596842	      3.85214847	      0.10024874	      0.95826703	      0.29007079	     32.99210315	     -8.28877423	      2.20792463	     -4.29635579	     -0.64168816	     -9.75613177	      5.26747649	    -21.89654793	      9.89455905	      8.33623323	     -1.95320332	      7.81372590	     -6.54031871	      4.81688085	     -8.08783715	      1.02780751	    -12.93465877
